<svg xmlns="http://www.w3.org/2000/svg" viewBox="0 0 162 151"><defs><style>.cls-1{fill:#fff;}</style></defs><title>Ресурс 1</title><g id="Слой_2" data-name="Слой 2"><g id="Слой_3" data-name="Слой 3"><path class="cls-1" d="M48,151H21L78,0H96l49,151H117L82,32Q65,91.51,48,151Z"/><path class="cls-1" d="M0,12,22,0,84,105l62-37q4,11,8,22L76,137Z"/><path class="cls-1" d="M85,151c-.24-.31-.42-.57-.57-.8-.36-.56-.49-.83-.86-1.4-.19-.28-.38-.55-.57-.8,8.64-6.23,17.76-12.51,27.38-18.75,16.4-10.66,32.36-20,47.62-28.25,1,3,3,7,4,10Z"/></g></g></svg>