<?xml version="1.0" encoding="iso-8859-1"?>
<!-- Generator: Adobe Illustrator 19.0.0, SVG Export Plug-In . SVG Version: 6.00 Build 0)  -->
<svg version="1.1" id="Capa_1" xmlns="http://www.w3.org/2000/svg" xmlns:xlink="http://www.w3.org/1999/xlink"
	 viewBox="0 0 512 512" style="enable-background:new 0 0 512 512;" xml:space="preserve">
<g>
	<g>
		<path fill="white" d="M469.333,64H42.667C19.135,64,0,83.135,0,106.667v298.667C0,428.865,19.135,448,42.667,448h426.667
			C492.865,448,512,428.865,512,405.333V106.667C512,83.135,492.865,64,469.333,64z M42.667,426.667
			c-11.76,0-21.333-9.573-21.333-21.333v-41.589c32.574,4.723,58.199,30.348,62.922,62.922H42.667z M105.589,426.667
			c-4.986-44.32-39.935-79.27-84.255-84.255V320.54c56.193,5.095,101.031,49.934,106.126,106.126H105.589z M148.793,426.667
			c-5.211-67.945-59.514-122.249-127.46-127.46V256.54c91.466,5.361,164.766,78.66,170.126,170.126H148.793z M212.793,426.667
			c-5.414-103.225-88.234-186.046-191.46-191.46v-21.333c114.983,5.454,207.339,97.81,212.793,212.793H212.793z M255.46,426.667
			C249.97,299.913,148.087,198.03,21.333,192.54v-42.667c150.271,5.544,271.249,126.522,276.793,276.793H255.46z M490.667,405.333
			c0,11.76-9.573,21.333-21.333,21.333H319.46c-5.568-162.03-136.096-292.559-298.126-298.126v-21.874
			c0-11.76,9.573-21.333,21.333-21.333h426.667c11.76,0,21.333,9.573,21.333,21.333V405.333z"/>
	</g>
</g>
<g>
</g>
<g>
</g>
<g>
</g>
<g>
</g>
<g>
</g>
<g>
</g>
<g>
</g>
<g>
</g>
<g>
</g>
<g>
</g>
<g>
</g>
<g>
</g>
<g>
</g>
<g>
</g>
<g>
</g>
</svg>
