<?xml version="1.0" encoding="iso-8859-1"?>
<!-- Generator: Adobe Illustrator 18.0.0, SVG Export Plug-In . SVG Version: 6.00 Build 0)  -->
<!DOCTYPE svg PUBLIC "-//W3C//DTD SVG 1.1//EN" "http://www.w3.org/Graphics/SVG/1.1/DTD/svg11.dtd">
<svg version="1.1" id="Capa_1" xmlns="http://www.w3.org/2000/svg" xmlns:xlink="http://www.w3.org/1999/xlink"
	 viewBox="0 0 60 60" style="enable-background:new 0 0 60 60;" xml:space="preserve">
<path d="M54.072,2.535L19.93,2.465c-3.27,0-5.93,2.66-5.93,5.93v5.124l-8.07,0.017c-3.27,0-5.93,2.66-5.93,5.93v21.141
	c0,3.27,2.66,5.929,5.929,5.929H12v10c0,0.413,0.254,0.784,0.639,0.933c0.118,0.045,0.24,0.067,0.361,0.067
	c0.276,0,0.547-0.115,0.74-0.327l9.704-10.675l16.626-0.068c3.27,0,5.93-2.66,5.93-5.929v-0.114l5.26,5.786
	c0.193,0.212,0.463,0.327,0.74,0.327c0.121,0,0.243-0.022,0.361-0.067C52.746,46.319,53,45.948,53,45.535v-10h1.07
	c3.27,0,5.93-2.66,5.93-5.929V8.465C60,5.196,57.341,2.536,54.072,2.535z M44,40.536c0,2.167-1.763,3.929-3.934,3.929l-17.07,0.07
	c-0.281,0.001-0.547,0.12-0.736,0.327L14,53.949v-8.414c0-0.552-0.448-1-1-1H5.929C3.763,44.535,2,42.772,2,40.606V19.465
	c0-2.167,1.763-3.93,3.932-3.93l9.068-0.019c0,0,0,0,0,0s0.002,0,0.002,0l24.87-0.051l0.198,0c1.354,0,2.551,0.689,3.258,1.734
	C43.752,17.826,44,18.582,44,19.395v18.441V40.536z M58,29.606c0,2.167-1.763,3.929-3.93,3.929H52c-0.552,0-1,0.448-1,1v8.414
	l-5-5.5V19.395c0-0.409-0.042-0.808-0.121-1.193c-0.04-0.193-0.089-0.382-0.146-0.568c-0.752-2.412-3.006-4.168-5.664-4.168h0l0,0
	l-0.104,0L16,13.514v-5.12c0-2.167,1.763-3.93,3.928-3.93l34.141,0.07c0,0,0.001,0,0.001,0c2.167,0,3.93,1.763,3.93,3.93V29.606z"/>
<g>
</g>
<g>
</g>
<g>
</g>
<g>
</g>
<g>
</g>
<g>
</g>
<g>
</g>
<g>
</g>
<g>
</g>
<g>
</g>
<g>
</g>
<g>
</g>
<g>
</g>
<g>
</g>
<g>
</g>
</svg>
