<?xml version="1.0" encoding="iso-8859-1"?>
<!-- Generator: Adobe Illustrator 19.0.0, SVG Export Plug-In . SVG Version: 6.00 Build 0)  -->
<svg version="1.1" id="Capa_1" xmlns="http://www.w3.org/2000/svg" xmlns:xlink="http://www.w3.org/1999/xlink" x="0px" y="0px"
	 viewBox="0 0 512 512" style="enable-background:new 0 0 512 512;" xml:space="preserve">
<g>
	<g>
		<g>
			<path fill="white" d="M59.733,179.574c-14.358,0-25.6,14.992-25.6,34.133c0,19.142,11.242,34.133,25.6,34.133s25.6-14.992,25.6-34.133
				C85.333,194.566,74.092,179.574,59.733,179.574z M59.733,230.774c-3.483,0-8.533-6.65-8.533-17.067
				c0-10.417,5.05-17.067,8.533-17.067s8.533,6.65,8.533,17.067C68.267,224.124,63.217,230.774,59.733,230.774z"/>
			<path fill="white" d="M136.533,230.774c-14.358,0-25.6,14.992-25.6,34.133c0,19.142,11.242,34.133,25.6,34.133s25.6-14.992,25.6-34.133
				C162.133,245.766,150.892,230.774,136.533,230.774z M136.533,281.974c-3.483,0-8.533-6.65-8.533-17.067
				c0-10.417,5.05-17.067,8.533-17.067c3.483,0,8.533,6.65,8.533,17.067C145.067,275.324,140.017,281.974,136.533,281.974z"/>
			<path fill="white" d="M136.533,324.641c-14.358,0-25.6,14.992-25.6,34.133s11.242,34.133,25.6,34.133s25.6-14.992,25.6-34.133
				S150.892,324.641,136.533,324.641z M136.533,375.841c-3.483,0-8.533-6.65-8.533-17.067s5.05-17.067,8.533-17.067
				c3.483,0,8.533,6.65,8.533,17.067S140.017,375.841,136.533,375.841z"/>
			<path fill="white" d="M59.733,273.441c-14.358,0-25.6,14.992-25.6,34.133s11.242,34.133,25.6,34.133s25.6-14.992,25.6-34.133
				S74.092,273.441,59.733,273.441z M59.733,324.641c-3.483,0-8.533-6.65-8.533-17.067c0-10.417,5.05-17.067,8.533-17.067
				s8.533,6.65,8.533,17.067C68.267,317.991,63.217,324.641,59.733,324.641z"/>
			<path fill="white" d="M315.733,188.107c-14.358,0-25.6,14.992-25.6,34.133c0,19.142,11.242,34.133,25.6,34.133
				c14.358,0,25.6-14.992,25.6-34.133C341.333,203.099,330.092,188.107,315.733,188.107z M315.733,239.307
				c-3.483,0-8.533-6.65-8.533-17.067s5.05-17.067,8.533-17.067c3.483,0,8.533,6.65,8.533,17.067S319.217,239.307,315.733,239.307z"
				/>
			<path fill="white" d="M238.933,316.107c-14.358,0-25.6,14.992-25.6,34.133s11.242,34.133,25.6,34.133s25.6-14.992,25.6-34.133
				S253.292,316.107,238.933,316.107z M238.933,367.307c-3.483,0-8.533-6.65-8.533-17.067c0-10.417,5.05-17.067,8.533-17.067
				s8.533,6.65,8.533,17.067C247.467,360.657,242.417,367.307,238.933,367.307z"/>
			<path fill="white" d="M221.867,119.841c0-14.354-14.992-25.6-34.133-25.6c-19.142,0-34.133,11.246-34.133,25.6s14.992,25.6,34.133,25.6
				C206.875,145.44,221.867,134.195,221.867,119.841z M187.733,128.374c-10.417,0-17.067-5.054-17.067-8.533
				s6.65-8.533,17.067-8.533s17.067,5.054,17.067,8.533S198.15,128.374,187.733,128.374z"/>
			<path fill="white" d="M508.708,161.983c-0.079-0.168-0.191-0.314-0.273-0.479l-0.035-0.109l-0.074-0.084
				c-2.985-6.017-7.686-11.015-13.509-14.362L341.242,59.153c-10.507-6.029-23.422-6.034-33.933-0.012l-14.693,8.406L204.667,17.29
				c-10.498-5.975-23.368-5.975-33.867,0L17.2,105.061c-5.811,3.351-10.504,8.341-13.492,14.346
				c-0.029,0.049-0.079,0.075-0.108,0.125c-0.052,0.091-0.046,0.193-0.094,0.285c-2.283,4.629-3.482,9.716-3.506,14.877v200.688
				c0.017,12.245,6.576,23.548,17.2,29.637l153.6,87.771c5.027,2.859,10.699,4.39,16.481,4.451c0.158,0.009,0.292,0.091,0.452,0.091
				c0.161,0,0.295-0.083,0.453-0.092c5.782-0.062,11.453-1.594,16.48-4.45l14.754-8.431l87.929,50.315
				c10.486,6.03,23.388,6.022,33.867-0.021l153.591-87.804c10.622-6.072,17.181-17.365,17.192-29.6V176.545
				C512.013,171.505,510.888,166.527,508.708,161.983z M315.808,73.945c5.247-3.013,11.7-3.008,16.942,0.013l153.583,87.8
				c0.617,0.428,1.204,0.896,1.758,1.402l-112.625,64.305v-38.925c5.397,2.294,11.203,3.468,17.067,3.452
				c19.142,0,34.133-11.246,34.133-25.6c0-14.354-14.992-25.6-34.133-25.6c-5.864-0.016-11.67,1.158-17.067,3.452v-9.548
				c-0.024-5.161-1.223-10.249-3.506-14.878c-0.048-0.092-0.042-0.194-0.094-0.285c-0.029-0.05-0.079-0.076-0.108-0.125
				c-2.988-6.005-7.681-10.995-13.491-14.346l-48.452-27.686L315.808,73.945z M375.467,166.391c0-3.479,6.65-8.533,17.067-8.533
				c10.417,0,17.067,5.054,17.067,8.533c0,3.479-6.65,8.533-17.067,8.533C382.117,174.924,375.467,169.87,375.467,166.391z
				 M179.2,437.936L25.667,350.203c-5.313-3.045-8.593-8.697-8.6-14.821V137.051l153.567,87.706c2.7,1.489,5.579,2.626,8.567,3.384
				V437.936z M179,209.882L23.844,121.27c0.575-0.505,1.184-0.97,1.823-1.392l153.6-87.771c5.249-2.989,11.685-2.989,16.933,0
				l153.6,87.771c0.639,0.422,1.248,0.887,1.823,1.392l-155.056,88.554C191.097,212.809,184.49,212.831,179,209.882z
				 M315.733,479.803l-79.113-45.272l79.113-45.207V479.803z M196.267,437.936V228.137c3.023-0.773,5.936-1.928,8.667-3.438
				L358.4,137.051v198.331c-0.007,6.124-3.287,11.776-8.6,14.821L196.267,437.936z M494.933,377.249
				c-0.005,6.109-3.28,11.747-8.583,14.779L332.8,479.806V379.572l25.467-14.552c10.624-6.089,17.183-17.392,17.2-29.638v-88.259
				l119.467-68.21V377.249z"/>
			<path fill="white" d="M418.133,362.657c14.358,0,25.6-14.992,25.6-34.133c0-19.142-11.242-34.133-25.6-34.133
				c-14.358,0-25.6,14.992-25.6,34.133C392.533,347.666,403.775,362.657,418.133,362.657z M418.133,311.457
				c3.483,0,8.533,6.65,8.533,17.067s-5.05,17.067-8.533,17.067c-3.483,0-8.533-6.65-8.533-17.067S414.65,311.457,418.133,311.457z"
				/>
		</g>
	</g>
</g>
<g>
</g>
<g>
</g>
<g>
</g>
<g>
</g>
<g>
</g>
<g>
</g>
<g>
</g>
<g>
</g>
<g>
</g>
<g>
</g>
<g>
</g>
<g>
</g>
<g>
</g>
<g>
</g>
<g>
</g>
</svg>
