<?xml version="1.0" encoding="iso-8859-1"?>
<!-- Generator: Adobe Illustrator 19.0.0, SVG Export Plug-In . SVG Version: 6.00 Build 0)  -->
<svg version="1.1" id="Capa_1" xmlns="http://www.w3.org/2000/svg" xmlns:xlink="http://www.w3.org/1999/xlink" x="0px" y="0px"
	fill="white" viewBox="0 0 480 480" style="enable-background:new 0 0 480 480;" xml:space="preserve">
<g>
	<g>
		<g>
			<rect x="56" y="136" width="16" height="16"/>
			<rect x="24" y="136" width="16" height="16"/>
			<rect x="88" y="136" width="16" height="16"/>
			<rect x="120" y="136" width="16" height="16"/>
			<rect x="152" y="136" width="16" height="16"/>
			<rect x="184" y="136" width="16" height="16"/>
			<rect x="216" y="136" width="16" height="16"/>
			<rect x="248" y="136" width="16" height="16"/>
			<rect x="280" y="136" width="16" height="16"/>
			<rect x="312" y="136" width="16" height="16"/>
			<rect x="344" y="136" width="16" height="16"/>
			<rect x="376" y="136" width="16" height="16"/>
			<rect x="408" y="136" width="16" height="16"/>
			<rect x="440" y="136" width="16" height="16"/>
			<rect x="56" y="392" width="16" height="16"/>
			<rect x="24" y="392" width="16" height="16"/>
			<rect x="88" y="392" width="16" height="16"/>
			<rect x="120" y="392" width="16" height="16"/>
			<rect x="152" y="392" width="16" height="16"/>
			<rect x="184" y="392" width="16" height="16"/>
			<rect x="216" y="392" width="16" height="16"/>
			<rect x="248" y="392" width="16" height="16"/>
			<rect x="280" y="392" width="16" height="16"/>
			<rect x="312" y="392" width="16" height="16"/>
			<rect x="344" y="392" width="16" height="16"/>
			<rect x="376" y="392" width="16" height="16"/>
			<rect x="408" y="392" width="16" height="16"/>
			<rect x="440" y="392" width="16" height="16"/>
			<path d="M472,104h-32V80c0-4.418-3.582-8-8-8h-32V48c0-4.418-3.582-8-8-8H88c-4.418,0-8,3.582-8,8v24H48c-4.418,0-8,3.582-8,8v24
				H8c-4.418,0-8,3.582-8,8v320c0,4.418,3.582,8,8,8h464c4.418,0,8-3.582,8-8V112C480,107.582,476.418,104,472,104z M96,56h288v16
				H96V56z M56,88h368v16H56V88z M464,424H16V120h448V424z"/>
			<path d="M200,346.504c0,4.418,3.582,8,8,8c1.639,0.001,3.24-0.502,4.584-1.44l106.512-74.512
				c0.763-0.535,1.427-1.199,1.962-1.962c2.535-3.619,1.657-8.607-1.962-11.142l-106.512-74.512
				c-1.345-0.94-2.946-1.444-4.588-1.444c-4.418,0.002-7.998,3.585-7.996,8.004V346.504z M216,212.848L300.552,272L216,331.152
				V212.848z"/>
		</g>
	</g>
</g>
<g>
</g>
<g>
</g>
<g>
</g>
<g>
</g>
<g>
</g>
<g>
</g>
<g>
</g>
<g>
</g>
<g>
</g>
<g>
</g>
<g>
</g>
<g>
</g>
<g>
</g>
<g>
</g>
<g>
</g>
</svg>
