<?xml version="1.0" encoding="iso-8859-1"?>
<!-- Generator: Adobe Illustrator 16.0.0, SVG Export Plug-In . SVG Version: 6.00 Build 0)  -->
<!DOCTYPE svg PUBLIC "-//W3C//DTD SVG 1.1//EN" "http://www.w3.org/Graphics/SVG/1.1/DTD/svg11.dtd">
<svg version="1.1" id="Capa_1" xmlns="http://www.w3.org/2000/svg" xmlns:xlink="http://www.w3.org/1999/xlink"
	 viewBox="0 0 476.284 476.284" style="enable-background:new 0 0 476.284 476.284;"
	 xml:space="preserve">
<g>
	<path fill="white" d="M92.045,232.536h24.17v11.207h-24.17V232.536z M0,243.742h46.895v-11.207H0V243.742z M161.363,232.536v11.207h314.921
		v-11.207H161.363z M150.157,160.473v106.563c0,1.686-0.577,3.338-1.637,4.663l-38.768,48.771c-1.424,1.795-3.592,2.841-5.873,2.841
		c-0.011,0-0.015,0-0.022,0c-2.297,0-4.468-1.062-5.89-2.874l-38.266-48.776c-1.039-1.319-1.601-2.95-1.601-4.625V160.473
		c0-4.148,3.364-7.5,7.502-7.5h77.051C146.798,152.973,150.157,156.319,150.157,160.473z M127.42,205.781c0-2.09-1.704-3.8-3.8-3.8
		H84.633c-2.096,0-3.801,1.71-3.801,3.8v53.918c0,0.854,0.287,1.674,0.812,2.341l19.365,24.69c0.724,0.909,1.817,1.456,2.977,1.456
		c0.006,0,0.011,0,0.011,0c1.161,0,2.251-0.537,2.968-1.434l19.628-24.69c0.535-0.667,0.818-1.499,0.818-2.363v-53.918H127.42z"/>
</g>
<g>
</g>
<g>
</g>
<g>
</g>
<g>
</g>
<g>
</g>
<g>
</g>
<g>
</g>
<g>
</g>
<g>
</g>
<g>
</g>
<g>
</g>
<g>
</g>
<g>
</g>
<g>
</g>
<g>
</g>
</svg>
