<?xml version="1.0" encoding="iso-8859-1"?>
<!-- Generator: Adobe Illustrator 19.0.0, SVG Export Plug-In . SVG Version: 6.00 Build 0)  -->
<svg version="1.1" id="Capa_1" xmlns="http://www.w3.org/2000/svg" xmlns:xlink="http://www.w3.org/1999/xlink" x="0px" y="0px"
	 viewBox="0 0 511.999 511.999" style="enable-background:new 0 0 511.999 511.999;" xml:space="preserve">
<g>
	<g>
		<path fill="white" d="M509.071,142.929L369.071,2.93c-3.907-3.904-10.237-3.904-14.143,0L214.929,142.929c-2.859,2.86-3.715,7.161-2.167,10.898
			c1.547,3.736,5.193,6.173,9.238,6.173H306v111.666c0,5.522,4.478,10,10,10s10-4.478,10-10V150c0-5.522-4.478-10-10-10h-69.857
			L362,24.143L477.857,140H408c-5.522,0-10,4.478-10,10v287.998h-72v-44.333c0-5.522-4.478-10-10-10s-10,4.478-10,10v54.333
			c0,5.522,4.478,10,10,10H408c5.522,0,10-4.477,10-10V160h84c4.045,0,7.691-2.437,9.238-6.173
			C512.786,150.09,511.93,145.789,509.071,142.929z"/>
	</g>
</g>
<g>
	<g>
		<path fill="white" d="M316.001,302.249c-5.522,0-10,4.478-10,10v0.326c0,5.522,4.478,10,10,10s10-4.477,10-10v-0.326
			C326.001,306.727,321.523,302.249,316.001,302.249z"/>
	</g>
</g>
<g>
	<g>
		<path fill="white" d="M299.236,358.172c-1.547-3.736-5.193-6.173-9.238-6.173h-83.999V193.999c0-5.522-4.478-10-10-10s-10,4.478-10,10v167.999
			c0,5.522,4.478,10,10,10h69.857L149.999,487.855L34.141,371.998h69.858c5.522,0,10-4.478,10-10V74h72v23.667
			c0,5.522,4.478,10,10,10s10-4.478,10-10V64c0-5.522-4.478-10-10-10h-91.999c-5.522,0-10,4.478-10,10v287.998h-84
			c-4.045,0-7.691,2.437-9.238,6.173c-1.548,3.737-0.692,8.038,2.167,10.898l139.999,139.999c1.953,1.952,4.511,2.929,7.071,2.929
			c2.559,0,5.118-0.976,7.071-2.929l139.999-139.999C299.928,366.209,300.784,361.908,299.236,358.172z"/>
	</g>
</g>
<g>
	<g>
		<path fill="white" d="M139.999,275.066c-5.522,0-10,4.478-10,10v76.342c0,5.522,4.478,10,10,10s10-4.477,10-10v-76.342
			C149.999,279.544,145.521,275.066,139.999,275.066z"/>
	</g>
</g>
<g>
	<g>
		<path fill="white" d="M139.999,242.408c-5.522,0-10,4.478-10,10v0.13c0,5.522,4.478,10,10,10s10-4.477,10-10v-0.13
			C149.999,246.886,145.521,242.408,139.999,242.408z"/>
	</g>
</g>
<g>
</g>
<g>
</g>
<g>
</g>
<g>
</g>
<g>
</g>
<g>
</g>
<g>
</g>
<g>
</g>
<g>
</g>
<g>
</g>
<g>
</g>
<g>
</g>
<g>
</g>
<g>
</g>
<g>
</g>
</svg>
