<?xml version="1.0" encoding="iso-8859-1"?>
<!-- Generator: Adobe Illustrator 16.0.0, SVG Export Plug-In . SVG Version: 6.00 Build 0)  -->
<!DOCTYPE svg PUBLIC "-//W3C//DTD SVG 1.1//EN" "http://www.w3.org/Graphics/SVG/1.1/DTD/svg11.dtd">
<svg version="1.1" id="Capa_1" xmlns="http://www.w3.org/2000/svg" xmlns:xlink="http://www.w3.org/1999/xlink" x="0px" y="0px"
	 viewBox="0 0 347.277 347.277" style="enable-background:new 0 0 347.277 347.277;"
	 xml:space="preserve">
<g>
	<g>
		<path d="M216.618,5.518c-4.203-2.13-9.245-1.715-13.043,1.071L67.209,106.629c-2.183-1.861-5.008-2.99-8.101-2.99H12.5
			c-6.903,0-12.5,5.597-12.5,12.5v115c0,6.903,5.597,12.5,12.5,12.5h46.607c3.094,0,5.919-1.13,8.102-2.991l136.368,100.041
			c2.187,1.604,4.783,2.421,7.396,2.421c1.928,0,3.863-0.444,5.647-1.35c4.202-2.129,6.851-6.439,6.851-11.15l-0.002-313.941
			C223.469,11.957,220.821,7.647,216.618,5.518z M25,128.639h21.607v90H25V128.639z M71.608,212.868V134.41l126.861-93.068
			l0.002,264.595L71.608,212.868z"/>
		<path d="M306.996,173.639l36.619-36.621c4.883-4.882,4.883-12.796,0-17.678c-4.881-4.881-12.795-4.881-17.678,0l-36.621,36.621
			l-36.621-36.621c-4.881-4.881-12.795-4.881-17.678,0c-4.881,4.882-4.881,12.796,0,17.678l36.623,36.621L235.02,210.26
			c-4.881,4.882-4.881,12.796,0,17.678c2.441,2.44,5.639,3.661,8.838,3.661s6.398-1.221,8.84-3.661l36.621-36.621l36.621,36.621
			c2.439,2.44,5.641,3.661,8.838,3.661c3.199,0,6.398-1.221,8.84-3.661c4.881-4.882,4.881-12.796,0-17.678L306.996,173.639z"/>
	</g>
</g>
<g>
</g>
<g>
</g>
<g>
</g>
<g>
</g>
<g>
</g>
<g>
</g>
<g>
</g>
<g>
</g>
<g>
</g>
<g>
</g>
<g>
</g>
<g>
</g>
<g>
</g>
<g>
</g>
<g>
</g>
</svg>
